<svg id="visual" viewBox="0 0 900 600" width="900" height="600" xmlns="http://www.w3.org/2000/svg" xmlns:xlink="http://www.w3.org/1999/xlink" version="1.1"><rect x="0" y="0" width="900" height="600" fill="#931C1C"></rect><path d="M0 93L113 117L225 160L338 97L450 162L563 127L675 175L788 156L900 174L900 601L788 601L675 601L563 601L450 601L338 601L225 601L113 601L0 601Z" fill="#871400"></path><path d="M0 222L113 264L225 273L338 194L450 189L563 202L675 264L788 267L900 266L900 601L788 601L675 601L563 601L450 601L338 601L225 601L113 601L0 601Z" fill="#a32d04"></path><path d="M0 336L113 360L225 276L338 289L450 297L563 341L675 272L788 285L900 297L900 601L788 601L675 601L563 601L450 601L338 601L225 601L113 601L0 601Z" fill="#be4407"></path><path d="M0 414L113 397L225 398L338 418L450 441L563 415L675 412L788 400L900 448L900 601L788 601L675 601L563 601L450 601L338 601L225 601L113 601L0 601Z" fill="#da5b09"></path><path d="M0 469L113 511L225 529L338 485L450 509L563 538L675 532L788 467L900 538L900 601L788 601L675 601L563 601L450 601L338 601L225 601L113 601L0 601Z" fill="#f5730a"></path></svg>